<?xml version="1.0" encoding="UTF-8"?>
<svg width="73px" height="56px" viewBox="0 0 73 56" version="1.1" xmlns="http://www.w3.org/2000/svg" xmlns:xlink="http://www.w3.org/1999/xlink">
    <!-- Generator: Sketch 45.2 (43514) - http://www.bohemiancoding.com/sketch -->
    <title>car</title>
    <desc>Created with Sketch.</desc>
    <defs></defs>
    <g id="Page-1" stroke="none" stroke-width="1" fill="none" fill-rule="evenodd">
        <g id="car">
            <path d="M56.7000012,48.4147317 L56.7000012,52.1040501 C56.7000012,54.2120116 58.511356,55.863152 60.7457753,55.863152 L64.8042273,55.863152 C67.0572271,55.863152 68.8500014,54.1801448 68.8500014,52.1040501 L68.8500014,25.6313286 C68.8500014,24.6997571 68.6777419,23.5753505 68.3891478,22.3452608 L68.8542274,22.3452608 C71.1072271,22.3452608 72.9000015,20.6778751 72.9000015,18.6210507 C72.9000015,16.5498864 71.0886467,14.8968405 68.8542274,14.8968405 L65.9118752,14.8968405 C64.1751574,10.5554002 62.3126928,6.83549053 62.3126928,6.83549053 C60.5851835,3.06161775 55.4992727,0 51.0205421,0 L21.8794594,0 C17.4053229,0 12.3450607,3.06100093 10.5873087,6.83693692 C10.5873087,6.83693692 8.72563748,10.5563682 6.98923608,14.8968405 L4.04577416,14.8968405 C1.79277438,14.8968405 0,16.5642262 0,18.6210507 C0,20.6922149 1.81135479,22.3452608 4.04577416,22.3452608 L4.51130524,22.3452608 C4.22243928,23.5756664 4.05000008,24.7001371 4.05000008,25.6313286 L4.05000008,52.1040501 C4.05000008,54.2120116 5.86135487,55.863152 8.09577424,55.863152 L12.1542262,55.863152 C14.407226,55.863152 16.2000003,54.1801448 16.2000003,52.1040501 L16.2000003,48.4147317 L56.7000012,48.4147317 Z" id="Combined-Shape" fill="#50E3C2" fill-rule="nonzero"></path>
            <circle id="Path" fill="#FFFFFF" opacity="0.816236413" cx="17" cy="35" r="6"></circle>
            <circle id="Path" fill="#FFFFFF" opacity="0.816236413" cx="56" cy="35" r="6"></circle>
            <path d="M57.0119015,8.73015787 C57.0119015,8.73015787 61.6317248,22.011845 61.862629,22.9284198 L11.1726304,22.9284198 C11.4038252,22.0111521 16.0234187,8.73001292 16.0234187,8.73001292 C16.8301548,6.40318312 19.3954604,4.44842027 21.722675,4.44842027 L51.3125845,4.44842027 C53.6410855,4.44842027 56.1914702,6.36541949 57.0119015,8.73015787 Z" id="Combined-Shape" fill="#FFFFFF" opacity="0.5"></path>
            <ellipse id="Oval-4" fill="#FFFFFF" opacity="0.5" cx="36.5" cy="38.5" rx="10.5" ry="2.5"></ellipse>
        </g>
    </g>
</svg>